<svg xmlns="http://www.w3.org/2000/svg" viewBox="0 0 34.555 34.555"><path d="M24.065 34.555H5.489a2.503 2.503 0 0 1-2.5-2.5V7.864c0-1.378 1.121-2.5 2.5-2.5h2.364a.5.5 0 0 1 0 1H5.489c-.827 0-1.5.673-1.5 1.5v24.19c0 .827.673 1.5 1.5 1.5h18.576c.827 0 1.5-.673 1.5-1.5v-2.365a.5.5 0 0 1 1 0v2.365a2.503 2.503 0 0 1-2.5 2.501z"/><path d="M29.065 29.19H10.489a2.503 2.503 0 0 1-2.5-2.5V2.5c0-1.378 1.121-2.5 2.5-2.5h13.604a.5.5 0 0 1 .001 1H10.489c-.827 0-1.5.673-1.5 1.5v24.19c0 .827.673 1.5 1.5 1.5h18.576c.827 0 1.5-.673 1.5-1.5V7.661a.5.5 0 0 1 1 0V26.69c0 1.379-1.121 2.5-2.5 2.5z"/><path d="M31.065 8.161h-6.972a.5.5 0 0 1-.5-.5V.688a.5.5 0 0 1 1 0v6.473h6.472a.5.5 0 0 1 0 1z"/><path d="M31.065 8.161a.5.5 0 0 1-.358-.151L23.735.849a.5.5 0 0 1 .717-.697l6.972 7.161a.5.5 0 0 1-.359.848z"/></svg>
